P3
3 3
255
0 0 0
100 35 239
54 167 89
255 255 255 
100 100 100
34 231 89
98 78 194
45 56 173
2 0 255