P3
2 2
255
0 0 0
0 0 0
78 99 234
219 192 143
