P3
3 3
255
100
100
100
110
110
110
120
120
120
100
100
100
110
110
110
120
120
120
100
100
100
110
110
110
120
120
120
