P3
2 2
255
207 82 157
86 55 0
255 142 34
182 179 166
